<?xml version="1.0" encoding="utf-8"?>
<!-- Generator: Adobe Illustrator 15.0.0, SVG Export Plug-In . SVG Version: 6.00 Build 0)  -->
<!DOCTYPE svg PUBLIC "-//W3C//DTD SVG 1.1//EN" "http://www.w3.org/Graphics/SVG/1.1/DTD/svg11.dtd">
<svg version="1.1" id="Ebene_1" xmlns="http://www.w3.org/2000/svg" xmlns:xlink="http://www.w3.org/1999/xlink" x="0px" y="0px"
	 width="595.28px" height="841.89px" viewBox="0 0 595.28 841.89" enable-background="new 0 0 595.28 841.89" xml:space="preserve">
<line fill="#6D332A" stroke="#B17F4A" stroke-width="7" stroke-miterlimit="10" x1="161.333" y1="420.945" x2="119.333" y2="434.611"/>
<line fill="#6D332A" stroke="#B17F4A" stroke-width="7" stroke-miterlimit="10" x1="119.333" y1="434.611" x2="114.691" y2="459.167"/>
<line fill="#6D332A" stroke="#B17F4A" stroke-width="7" stroke-miterlimit="10" x1="119.333" y1="434.611" x2="96.211" y2="449.611"/>
<line fill="#6D332A" stroke="#B17F4A" stroke-width="7" stroke-miterlimit="10" x1="119.333" y1="434.611" x2="91.357" y2="434.611"/>
<polygon fill="#DFA002" stroke="#000000" stroke-miterlimit="10" points="336.271,355.791 376.487,373.945 334.744,396.516 "/>
<path fill="#9F2A16" stroke="#000000" stroke-miterlimit="10" d="M238.728,298.048c-48.945,0-90.657,32.353-99.292,68.578
	l-89.636-16.293l1.421,44.332l88.723-9.971c0,43.078,43.556,69.355,98.784,69.355s100-34.922,100-78
	S293.957,298.048,238.728,298.048z"/>
<path fill="#9F2A16" stroke="#000000" stroke-miterlimit="10" d="M270.422,394.749C249.874,474.306,183.366,524.456,159,518.313
	c-24.366-6.145,2.636-66.258,23.185-145.814"/>
<ellipse cx="290.854" cy="350.333" rx="33.854" ry="32.333"/>
<ellipse fill="#FFFFFF" cx="304.083" cy="355.247" rx="13.229" ry="15.247"/>
</svg>
