<?xml version="1.0" encoding="utf-8"?>
<!-- Generator: Adobe Illustrator 15.0.0, SVG Export Plug-In . SVG Version: 6.00 Build 0)  -->
<!DOCTYPE svg PUBLIC "-//W3C//DTD SVG 1.1//EN" "http://www.w3.org/Graphics/SVG/1.1/DTD/svg11.dtd">
<svg version="1.1" id="Ebene_1" xmlns="http://www.w3.org/2000/svg" xmlns:xlink="http://www.w3.org/1999/xlink" x="0px" y="0px"
	 width="595.28px" height="841.89px" viewBox="0 0 595.28 841.89" enable-background="new 0 0 595.28 841.89" xml:space="preserve">
<rect x="159.5" y="294" fill="#936037" width="298" height="2356"/>
<path fill="#B17F4A" d="M229,2618.375c0,7-2.687,8.625-6,8.625h-37c-3.313,0-5.849-2.501-6-9.75V333.358
	c0-21.735,2.687-39.358,6-39.358h37c3.313,0,6,17.623,6,39.358V2618.375z"/>
<path fill="#3AAA35" d="M463.5,254h-305c-6.627,0-12,5.373-12,12v80.167c0,30.259,58.75,36.333,60.25-0.167s72.5-34.75,73.5-1
	s30.563,79.66,65.917,42.667C375.5,356.973,392.5,343.5,418,350.75s5.178,39.165,33.75,42.875c19.25,2.5,23.75-9.5,23.75-22.375V266
	C475.5,259.373,470.127,254,463.5,254z"/>
</svg>
