<?xml version="1.0" encoding="utf-8"?>
<!-- Generator: Adobe Illustrator 15.0.0, SVG Export Plug-In . SVG Version: 6.00 Build 0)  -->
<!DOCTYPE svg PUBLIC "-//W3C//DTD SVG 1.1//EN" "http://www.w3.org/Graphics/SVG/1.1/DTD/svg11.dtd">
<svg version="1.1" id="Ebene_1" xmlns="http://www.w3.org/2000/svg" xmlns:xlink="http://www.w3.org/1999/xlink" x="0px" y="0px"
	 width="595.28px" height="841.89px" viewBox="0 0 595.28 841.89" enable-background="new 0 0 595.28 841.89" xml:space="preserve">
<g>
	<polygon fill="#F39200" points="420.691,79.775 380.352,102.032 381.246,55.968 	"/>
	<path fill="#E71D73" d="M287.723,0c-48.953,0-89.683,27.814-98.28,64.535c-28.01-12.445-70.461-19.646-84.443-9.356
		C89.369,66.682,86.177,66.219,88.013,72.197c2.225,7.248,17.65-2.276,19.009,3.466c1.416,5.989-17.208,9.97-15.369,18.279
		c2.022,9.14,16.987-3.151,19.212,3.151c2.009,5.692-14.965,10.4-11.324,19.54c3.639,9.14,15.975-2.521,17.795,2.837
		c1.727,5.082-11.324,15.331-9.303,21.949c2.023,6.618,16.767-0.781,24.672-9.029c23.185-26.11,27.799-40.803,57.938-34.52
		C201.347,132.388,240.748,158,287.723,158c55.205,0,99.958-35.369,99.958-79C387.682,35.37,342.928,0,287.723,0z"/>
	<ellipse fill="#FFFFFF" cx="334.432" cy="40.75" rx="25.75" ry="23"/>
	<ellipse cx="343.057" cy="42.75" rx="12.875" ry="11.5"/>
	<g>
		<path fill="#F7BFC8" d="M82.347,261.676c0,0-23.043,9.047-46.016,10.553C8.781,270.94-1.158,261.54,0.106,257.454
			c0.887-2.865,37.163-0.98,37.163-0.98S5.088,243.868,4.793,239.127c-0.297-4.74,37.51,1.668,37.51,1.668
			s-23.95-21.218-22.952-25.288c0.999-4.068,40.587,8.158,40.587,8.158s-31.265-19.344-29.563-24.209
			c1.7-4.863,43.121,16.682,43.121,16.682s-32.39-29.336-30.174-33.984c2.215-4.646,40.406,15.98,40.406,15.98
			s-25.339-30.149-20.207-34.811c6.323-5.74,40.503,17.514,40.503,17.514s-33.734-29.893-25.113-38.512
			c10.69-10.686,41.749,26.787,41.749,26.787s-29.181-39.656-20.828-44.791c10.627-6.533,36.216,34.479,36.216,34.479
			s-29.229-40.258-17.501-44.997c12.743-5.15,31.6,35.434,31.6,35.434s-20.395-37.844-8.043-43.29
			c10.997-4.85,26.26,35.476,26.26,35.476s-16.88-48.273-5.732-49.072c8.645-0.62,26.567,40.425,26.567,40.425
			s-9.767-49.488,2.253-49.569c12.684-0.086,18.434,40.933,18.434,40.933s-3.429-35.929,3.689-39.641
			c5.823-3.035,20.414,27.448,20.414,27.448s-9.33-25.918,4.163-29.648c12.476-3.45,25.158,7.113,25.158,7.113l16.36,7.957
			l4.877,11.259l-6.214,50.318l-55.979,44.905l-107.142,43.921L82.347,261.676z"/>
		<path fill="#E71D73" d="M263.13,182.939c30.96-30.698,41.799-47.36,42.635-76.803l-26.096-8.768c0,0-0.076,16.728-22.814,49.224
			c-25.607,36.599-27.452,41.79-89.022,72.015c-40.146,19.706-85.485,43.069-85.485,43.069S227.903,217.865,263.13,182.939z"/>
	</g>
</g>
</svg>
