<?xml version="1.0" encoding="utf-8"?>
<!-- Generator: Adobe Illustrator 15.0.0, SVG Export Plug-In . SVG Version: 6.00 Build 0)  -->
<!DOCTYPE svg PUBLIC "-//W3C//DTD SVG 1.1//EN" "http://www.w3.org/Graphics/SVG/1.1/DTD/svg11.dtd">
<svg version="1.1" id="Ebene_1" xmlns="http://www.w3.org/2000/svg" xmlns:xlink="http://www.w3.org/1999/xlink" x="0px" y="0px"
	 width="595.28px" height="841.89px" viewBox="0 0 595.28 841.89" enable-background="new 0 0 595.28 841.89" xml:space="preserve">
<g>
	<polygon fill="#F39200" points="333.143,312.939 292.803,335.195 293.697,289.133 	"/>
	<path fill="#E71D73" d="M200.175,233.164c-48.953,0-89.683,27.813-98.28,64.535c-28.01-12.445-70.461-19.646-84.443-9.357
		C1.82,299.846-1.371,299.383,0.465,305.361c2.225,7.247,17.65-2.277,19.009,3.465c1.416,5.989-17.208,9.97-15.369,18.279
		c2.022,9.141,16.987-3.151,19.212,3.152c2.009,5.691-14.965,10.399-11.324,19.539c3.639,9.141,15.975-2.521,17.795,2.838
		c1.727,5.082-11.324,15.33-9.303,21.949c2.023,6.617,16.767-0.781,24.672-9.029c23.185-26.111,27.799-40.804,57.938-34.52
		c10.705,34.517,50.105,60.129,97.081,60.129c55.205,0,99.958-35.369,99.958-79S255.38,233.164,200.175,233.164z"/>
	<ellipse fill="#FFFFFF" cx="246.883" cy="273.914" rx="25.75" ry="23"/>
	<ellipse cx="255.508" cy="275.914" rx="12.875" ry="11.5"/>
	<g>
		<path fill="#F7BFC8" d="M99.5,44.592c0,0-14.36-20.166-32.781-33.973C42.938-3.35,29.479-0.905,28.305,3.208
			C27.481,6.093,58.898,24.33,58.898,24.33s-33.841-7.019-36.678-3.209c-2.838,3.81,32.331,19.09,32.331,19.09
			S22.9,44.901,21.514,48.856c-1.386,3.955,38.453,15.336,38.453,15.336s-36.754-0.875-37.986,4.128s45.232,9.58,45.232,9.58
			s-43.155,6.884-43.838,11.986c-0.683,5.102,42.574,8.685,42.574,8.685s-37.692,11.414-35.939,18.121
			c2.16,8.262,43.493,7.453,43.493,7.453s-44.585,6.613-42.071,18.542c3.117,14.79,49.602,0.366,49.602,0.366
			s-46.104,17.279-41.912,26.142c5.334,11.277,49.17-9.1,49.17-9.1s-46.473,17.757-39.238,28.133
			c7.861,11.274,45.824-12.421,45.824-12.421s-37.755,20.561-30.383,31.869c6.563,10.068,41.373-15.373,41.373-15.373
			s-40.506,31.216-31.605,37.975c6.902,5.24,44.335-19.351,44.335-19.351s-35.212,36.119-25.188,42.752
			c10.577,7,37.799-24.218,37.799-24.218s-22.497,28.223-18.562,35.219c3.22,5.724,32.093-11.842,32.093-11.842
			s-21.973,16.614-12.708,27.109c8.566,9.705,24.96,7.783,24.96,7.783l18.05,2.271l10.235-6.768l22.279-45.543l-22.364-68.19
			l-65.757-95.312L99.5,44.592z"/>
		<path fill="#E71D73" d="M207.926,209.293c9.166,42.625,9.145,62.502-6.236,87.621l-26.649-6.91c0,0,9.073-14.053,7.776-53.693
			c-1.46-44.645-0.17-50-35.235-108.947C124.717,88.928,99.5,44.592,99.5,44.592S197.494,160.794,207.926,209.293z"/>
	</g>
</g>
</svg>
