<?xml version="1.0" encoding="utf-8"?>
<!-- Generator: Adobe Illustrator 15.0.0, SVG Export Plug-In . SVG Version: 6.00 Build 0)  -->
<!DOCTYPE svg PUBLIC "-//W3C//DTD SVG 1.1//EN" "http://www.w3.org/Graphics/SVG/1.1/DTD/svg11.dtd">
<svg version="1.1" id="Ebene_1" xmlns="http://www.w3.org/2000/svg" xmlns:xlink="http://www.w3.org/1999/xlink" x="0px" y="0px"
	 width="595.28px" height="841.89px" viewBox="0 0 595.28 841.89" enable-background="new 0 0 595.28 841.89" xml:space="preserve">
<g>
	<path fill="#F7BFC8" d="M62.643,145.426l-1.411-7.008c-5.146-2.16-10.07-4.333-14.066-6.293
		c-7.471-3.662-16.677-9.761-24.967-15.705l1.287,4.357l-3.629-6.049C8.847,106.713,0,99.44,0,99.44s12.864,43.17,36.872,53.588
		c0.614,0.268,1.235,0.518,1.861,0.756l6.23-3.485l-4.344,4.153c8.078,2.668,16.932,3.152,25.084,2.633l2.805-3.176l-1.571,3.089
		c15.108-1.156,27.498-5.607,27.498-5.607s-31.593,2.36-51.374-7.712c-7.908-4.027-20.344-15.849-20.344-15.849
		s17.108,11.417,27.804,16.481c9.39,4.447,43.914,7.079,43.914,7.079s-16.326-5.956-31.452-12.239L62.643,145.426z"/>
	<path fill="#F7BFC8" d="M108.704,48.422l7.133,0.472c3.432-4.401,6.817-8.584,9.755-11.93c5.49-6.251,13.786-13.54,21.692-19.985
		l-4.542,0.103l6.788-1.919C160.148,6.634,169.483,0,169.483,0s-45.032,1.117-61.371,21.561c-0.418,0.523-0.823,1.057-1.217,1.599
		l1.733,6.925l-2.872-5.28c-4.688,7.099-7.473,15.517-9.105,23.52l2.331,3.539l-2.57-2.326c-2.839,14.884-1.786,28.007-1.786,28.007
		s5.991-31.11,20.891-47.564c5.957-6.578,20.621-15.486,20.621-15.486s-15.498,13.523-23.186,22.521
		c-6.748,7.898-18.326,40.53-18.326,40.53s10.021-14.198,20.046-27.153L108.704,48.422z"/>
	<path fill="#F7BFC8" d="M182.194,106.624l-5.189-4.916c-5.451,1.198-10.729,2.258-15.124,2.959
		c-8.216,1.309-19.255,1.625-29.456,1.541l3.563,2.82l-6.449-2.854c-13.618-0.212-25.039-1.062-25.039-1.062
		s35.381,27.881,61.008,22.569c0.654-0.136,1.307-0.288,1.957-0.454l3.085-6.438l-1.159,5.897
		c8.141-2.473,15.656-7.176,22.021-12.296l0.465-4.212l0.494,3.431c11.685-9.647,19.248-20.422,19.248-20.422
		s-24.466,20.127-46.438,23.286c-8.784,1.262-25.76-1.238-25.76-1.238s20.563-0.521,32.223-2.541
		c10.236-1.773,39.975-19.507,39.975-19.507s-16.775,4.535-32.761,8.11L182.194,106.624z"/>
</g>
</svg>
